<svg width="208" height="52" viewBox="0 0 208 52" fill="none" xmlns="http://www.w3.org/2000/svg">
<path d="M48.5992 13.9514C48.5135 13.009 48.1323 12.2764 47.4554 11.7538C46.7871 11.2226 45.8318 10.957 44.5895 10.957C43.767 10.957 43.0816 11.0641 42.5333 11.2783C41.9849 11.4925 41.5737 11.7881 41.2995 12.165C41.0253 12.5334 40.884 12.9575 40.8754 13.4373C40.8583 13.8315 40.9354 14.1784 41.1067 14.4783C41.2867 14.7782 41.5437 15.0438 41.8778 15.2751C42.2205 15.4979 42.6318 15.6949 43.1116 15.8663C43.5914 16.0376 44.1311 16.1876 44.7309 16.3161L46.9928 16.8302C48.2951 17.1129 49.4431 17.4899 50.437 17.9611C51.4394 18.4323 52.2791 18.9935 52.9559 19.6447C53.6413 20.2958 54.1597 21.0455 54.511 21.8937C54.8622 22.7419 55.0422 23.6929 55.0507 24.7467C55.0422 26.4089 54.6223 27.8354 53.7913 29.0263C52.9602 30.2172 51.765 31.1297 50.2057 31.7637C48.6549 32.3977 46.7829 32.7147 44.5895 32.7147C42.3876 32.7147 40.4684 32.3849 38.832 31.7252C37.1956 31.0654 35.9233 30.063 35.0151 28.7179C34.1069 27.3728 33.64 25.6721 33.6143 23.6158H39.7059C39.7573 24.464 39.9844 25.1708 40.387 25.7363C40.7897 26.3018 41.3424 26.7302 42.0449 27.0215C42.756 27.3128 43.5785 27.4584 44.5124 27.4584C45.3692 27.4584 46.0974 27.3428 46.6972 27.1114C47.3055 26.8801 47.7724 26.5588 48.098 26.1476C48.4236 25.7363 48.5907 25.2651 48.5992 24.7339C48.5907 24.237 48.4364 23.8129 48.1366 23.4616C47.8367 23.1017 47.374 22.7933 46.7486 22.5363C46.1317 22.2707 45.3435 22.0265 44.3839 21.8037L41.6337 21.1611C39.3546 20.6385 37.5597 19.7946 36.2488 18.6294C34.938 17.4556 34.2868 15.8706 34.2954 13.8743C34.2868 12.2464 34.7238 10.8199 35.6063 9.59472C36.4887 8.36953 37.7096 7.41423 39.269 6.72881C40.8283 6.04339 42.6061 5.70068 44.6024 5.70068C46.6415 5.70068 48.4107 6.04768 49.9101 6.74166C51.418 7.42708 52.5875 8.39095 53.4186 9.63327C54.2496 10.8756 54.6737 12.315 54.6909 13.9514H48.5992Z" fill="#161971"/>
<path d="M67.4911 32.7533C65.4262 32.7533 63.6442 32.3463 62.1448 31.5324C60.654 30.7099 59.5059 29.5404 58.7006 28.0239C57.9038 26.4988 57.5054 24.6868 57.5054 22.5877C57.5054 20.5486 57.9081 18.7665 58.7134 17.2414C59.5188 15.7078 60.654 14.5169 62.1191 13.6687C63.5842 12.8119 65.3106 12.3835 67.2983 12.3835C68.7034 12.3835 69.9886 12.602 71.1538 13.0389C72.319 13.4759 73.3257 14.1228 74.1739 14.9795C75.0221 15.8363 75.6818 16.8944 76.153 18.1539C76.6243 19.4048 76.8599 20.8399 76.8599 22.4592V24.0271H59.703V20.3772H71.0124C71.0038 19.7089 70.8453 19.1135 70.5369 18.5908C70.2285 18.0682 69.8043 17.6612 69.2646 17.3699C68.7334 17.0701 68.1208 16.9201 67.4268 16.9201C66.7243 16.9201 66.0945 17.0786 65.5376 17.3956C64.9807 17.7041 64.5395 18.1282 64.2139 18.6679C63.8883 19.1991 63.717 19.8032 63.6998 20.48V24.1941C63.6998 24.9995 63.8583 25.7063 64.1754 26.3146C64.4924 26.9144 64.9422 27.3813 65.5248 27.7155C66.1074 28.0496 66.8014 28.2167 67.6067 28.2167C68.1636 28.2167 68.6691 28.1396 69.1232 27.9853C69.5773 27.8311 69.9671 27.6041 70.2927 27.3042C70.6183 27.0043 70.8625 26.6359 71.0252 26.199L76.7956 26.366C76.5557 27.6598 76.0288 28.7864 75.2149 29.746C74.4095 30.697 73.3514 31.4381 72.0405 31.9693C70.7297 32.492 69.2132 32.7533 67.4911 32.7533Z" fill="#161971"/>
<path d="M98.6883 12.6405L91.9155 32.3806H84.7186L77.9587 12.6405H84.5773L88.2143 26.2375H88.4199L92.0697 12.6405H98.6883Z" fill="#161971"/>
<path d="M109.689 32.7533C107.624 32.7533 105.842 32.3463 104.343 31.5324C102.852 30.7099 101.704 29.5404 100.899 28.0239C100.102 26.4988 99.7036 24.6868 99.7036 22.5877C99.7036 20.5486 100.106 18.7665 100.912 17.2414C101.717 15.7078 102.852 14.5169 104.317 13.6687C105.782 12.8119 107.509 12.3835 109.496 12.3835C110.902 12.3835 112.187 12.602 113.352 13.0389C114.517 13.4759 115.524 14.1228 116.372 14.9795C117.22 15.8363 117.88 16.8944 118.351 18.1539C118.822 19.4048 119.058 20.8399 119.058 22.4592V24.0271H101.901V20.3772H113.211C113.202 19.7089 113.044 19.1135 112.735 18.5908C112.427 18.0682 112.003 17.6612 111.463 17.3699C110.932 17.0701 110.319 16.9201 109.625 16.9201C108.922 16.9201 108.293 17.0786 107.736 17.3956C107.179 17.7041 106.738 18.1282 106.412 18.6679C106.087 19.1991 105.915 19.8032 105.898 20.48V24.1941C105.898 24.9995 106.057 25.7063 106.374 26.3146C106.691 26.9144 107.14 27.3813 107.723 27.7155C108.306 28.0496 109 28.2167 109.805 28.2167C110.362 28.2167 110.867 28.1396 111.321 27.9853C111.776 27.8311 112.165 27.6041 112.491 27.3042C112.816 27.0043 113.061 26.6359 113.223 26.199L118.994 26.366C118.754 27.6598 118.227 28.7864 117.413 29.746C116.608 30.697 115.55 31.4381 114.239 31.9693C112.928 32.492 111.411 32.7533 109.689 32.7533Z" fill="#161971"/>
<path d="M128.552 21.1226V32.3806H122.268V12.6405H128.244V16.2647H128.462C128.899 15.0566 129.645 14.1099 130.698 13.4245C131.752 12.7305 133.007 12.3835 134.464 12.3835C135.852 12.3835 137.056 12.6962 138.075 13.3217C139.103 13.9386 139.9 14.8039 140.466 15.9177C141.04 17.0229 141.322 18.3167 141.314 19.7989V32.3806H135.029V21.0326C135.038 19.936 134.76 19.0792 134.194 18.4623C133.637 17.8454 132.862 17.537 131.868 17.537C131.208 17.537 130.626 17.6827 130.12 17.974C129.623 18.2567 129.238 18.6637 128.963 19.1949C128.698 19.7261 128.561 20.3686 128.552 21.1226Z" fill="#161971"/>
<path d="M145.205 39.7831V12.6405H151.425V16.0205H151.618C151.875 15.4208 152.239 14.8424 152.71 14.2855C153.19 13.7286 153.798 13.2746 154.535 12.9233C155.28 12.5634 156.171 12.3835 157.208 12.3835C158.579 12.3835 159.86 12.7434 161.051 13.463C162.25 14.1827 163.218 15.2923 163.955 16.7916C164.692 18.291 165.06 20.2016 165.06 22.5234C165.06 24.7596 164.705 26.6316 163.994 28.1396C163.291 29.6475 162.34 30.7784 161.141 31.5324C159.95 32.2863 158.626 32.6633 157.169 32.6633C156.176 32.6633 155.315 32.5005 154.586 32.175C153.858 31.8494 153.245 31.421 152.749 30.8898C152.26 30.3586 151.883 29.7889 151.618 29.1805H151.489V39.7831H145.205ZM151.361 22.5106C151.361 23.573 151.502 24.4983 151.785 25.2865C152.076 26.0747 152.492 26.6873 153.031 27.1243C153.58 27.5527 154.235 27.7669 154.998 27.7669C155.769 27.7669 156.424 27.5527 156.964 27.1243C157.504 26.6873 157.911 26.0747 158.185 25.2865C158.468 24.4983 158.609 23.573 158.609 22.5106C158.609 21.4482 158.468 20.5271 158.185 19.7475C157.911 18.9678 157.504 18.3638 156.964 17.9354C156.433 17.507 155.777 17.2928 154.998 17.2928C154.226 17.2928 153.571 17.5027 153.031 17.9225C152.492 18.3424 152.076 18.9421 151.785 19.7218C151.502 20.5014 151.361 21.431 151.361 22.5106Z" fill="#161971"/>
<path d="M173.918 32.7147C172.659 32.7147 171.541 32.5048 170.564 32.085C169.596 31.6566 168.829 31.014 168.264 30.1573C167.707 29.2919 167.428 28.2081 167.428 26.9058C167.428 25.8091 167.621 24.8838 168.007 24.1299C168.392 23.3759 168.923 22.7633 169.6 22.2921C170.277 21.8209 171.057 21.4653 171.939 21.2254C172.822 20.9769 173.764 20.8099 174.767 20.7242C175.889 20.6214 176.793 20.5143 177.478 20.4029C178.164 20.283 178.661 20.1159 178.969 19.9017C179.286 19.6789 179.445 19.3662 179.445 18.9635V18.8993C179.445 18.2396 179.217 17.7298 178.763 17.3699C178.309 17.0101 177.697 16.8302 176.926 16.8302C176.095 16.8302 175.426 17.0101 174.921 17.3699C174.415 17.7298 174.094 18.2267 173.957 18.8607L168.161 18.6551C168.332 17.4556 168.773 16.3846 169.485 15.4422C170.204 14.4912 171.19 13.7458 172.44 13.206C173.7 12.6577 175.212 12.3835 176.977 12.3835C178.236 12.3835 179.397 12.5334 180.46 12.8333C181.522 13.1246 182.447 13.553 183.236 14.1185C184.024 14.6754 184.632 15.3608 185.061 16.1747C185.498 16.9887 185.716 17.9183 185.716 18.9635V32.3806H179.804V29.6303H179.65C179.299 30.2986 178.849 30.8641 178.301 31.3268C177.761 31.7894 177.123 32.1364 176.386 32.3677C175.658 32.5991 174.835 32.7147 173.918 32.7147ZM175.859 28.6022C176.536 28.6022 177.144 28.4651 177.684 28.191C178.232 27.9168 178.669 27.5398 178.995 27.06C179.32 26.5717 179.483 26.0062 179.483 25.3636V23.4873C179.303 23.5815 179.085 23.6672 178.828 23.7443C178.579 23.8214 178.305 23.8943 178.005 23.9628C177.705 24.0313 177.397 24.0913 177.08 24.1427C176.763 24.1941 176.459 24.2412 176.167 24.2841C175.576 24.3783 175.071 24.524 174.651 24.721C174.24 24.9181 173.923 25.1751 173.7 25.4921C173.486 25.8006 173.379 26.169 173.379 26.5974C173.379 27.2485 173.61 27.7454 174.073 28.0882C174.544 28.4309 175.139 28.6022 175.859 28.6022Z" fill="#161971"/>
<path d="M192.695 39.7831C191.941 39.7831 191.229 39.7231 190.561 39.6032C189.893 39.4918 189.319 39.3419 188.839 39.1534L190.227 34.5911C190.844 34.7967 191.401 34.9166 191.898 34.9509C192.403 34.9852 192.836 34.9038 193.196 34.7067C193.564 34.5182 193.847 34.1798 194.044 33.6914L194.288 33.1003L187.271 12.6405H193.851L197.488 26.7259H197.694L201.382 12.6405H208.001L200.56 34.2698C200.2 35.3493 199.69 36.3003 199.03 37.1228C198.379 37.9539 197.535 38.605 196.499 39.0763C195.47 39.5475 194.202 39.7831 192.695 39.7831Z" fill="#161971"/>
<path d="M14.1875 14.7889C15.7694 12.6157 18.8135 12.1364 20.9867 13.7182C23.1599 15.3001 23.6392 18.3442 22.0574 20.5173L10.7402 36.065C9.15836 38.2382 6.11428 38.7176 3.94109 37.1357C1.7679 35.5539 1.28854 32.5098 2.8704 30.3366L14.1875 14.7889Z" fill="#FF6600"/>
<path d="M14.1875 14.7889C15.7694 12.6157 18.8135 12.1364 20.9867 13.7182C23.1599 15.3001 23.6392 18.3442 22.0574 20.5173L10.7402 36.065C9.15836 38.2382 6.11428 38.7176 3.94109 37.1357C1.7679 35.5539 1.28854 32.5098 2.8704 30.3366L14.1875 14.7889Z" fill="url(#paint0_linear_139_3473)"/>
<path d="M19.2065 11.8794C21.7217 11.8794 23.7607 13.9184 23.7607 16.4336C23.7607 18.9489 21.7217 20.9879 19.2065 20.9879L4.5537 20.9879C2.03846 20.9879 -0.000547718 18.9489 -0.000547608 16.4336C-0.000547498 13.9184 2.03846 11.8794 4.5537 11.8794L19.2065 11.8794Z" fill="#FF6600"/>
<path d="M19.2065 -1.99072e-07C21.7217 -8.91277e-08 23.7607 2.03901 23.7607 4.55424C23.7607 7.06948 21.7217 9.10849 19.2065 9.10849L4.5537 9.10849C2.03846 9.10849 -0.000547718 7.06948 -0.000547608 4.55424C-0.000547498 2.039 2.03846 -9.49511e-07 4.5537 -8.39566e-07L19.2065 -1.99072e-07Z" fill="#FF6600"/>
<path d="M14.1875 14.7889C15.7694 12.6157 18.8135 12.1364 20.9867 13.7182C23.1599 15.3001 23.6392 18.3442 22.0574 20.5173L10.7402 36.065C9.15836 38.2382 6.11428 38.7176 3.94109 37.1357C1.7679 35.5539 1.28854 32.5098 2.8704 30.3366L14.1875 14.7889Z" fill="#FF6600"/>
<path d="M14.1875 14.7889C15.7694 12.6157 18.8135 12.1364 20.9867 13.7182C23.1599 15.3001 23.6392 18.3442 22.0574 20.5173L10.7402 36.065C9.15836 38.2382 6.11428 38.7176 3.94109 37.1357C1.7679 35.5539 1.28854 32.5098 2.8704 30.3366L14.1875 14.7889Z" fill="url(#paint1_linear_139_3473)"/>
<path d="M19.2065 11.8794C21.7217 11.8794 23.7607 13.9184 23.7607 16.4336C23.7607 18.9489 21.7217 20.9879 19.2065 20.9879L4.5537 20.9879C2.03846 20.9879 -0.000547718 18.9489 -0.000547608 16.4336C-0.000547498 13.9184 2.03846 11.8794 4.5537 11.8794L19.2065 11.8794Z" fill="#FF6600"/>
<path d="M19.2065 -1.99072e-07C21.7217 -8.91277e-08 23.7607 2.03901 23.7607 4.55424C23.7607 7.06948 21.7217 9.10849 19.2065 9.10849L4.5537 9.10849C2.03846 9.10849 -0.000547718 7.06948 -0.000547608 4.55424C-0.000547498 2.039 2.03846 -9.49511e-07 4.5537 -8.39566e-07L19.2065 -1.99072e-07Z" fill="#FF6600"/>
<path d="M34.9688 49V41H37.6719C38.2995 41 38.8125 41.1133 39.2109 41.3398C39.612 41.5638 39.9089 41.8672 40.1016 42.25C40.2943 42.6328 40.3906 43.0599 40.3906 43.5312C40.3906 44.0026 40.2943 44.431 40.1016 44.8164C39.9115 45.2018 39.6172 45.5091 39.2188 45.7383C38.8203 45.9648 38.3099 46.0781 37.6875 46.0781H35.75V45.2188H37.6563C38.0859 45.2188 38.431 45.1445 38.6914 44.9961C38.9518 44.8477 39.1406 44.6471 39.2578 44.3945C39.3776 44.1393 39.4375 43.8516 39.4375 43.5312C39.4375 43.2109 39.3776 42.9245 39.2578 42.6719C39.1406 42.4193 38.9505 42.2214 38.6875 42.0781C38.4245 41.9323 38.0755 41.8594 37.6406 41.8594H35.9375V49H34.9688ZM44.1992 49.125C43.6576 49.125 43.1823 48.9961 42.7734 48.7383C42.3672 48.4805 42.0495 48.1198 41.8203 47.6562C41.5938 47.1927 41.4805 46.651 41.4805 46.0312C41.4805 45.4062 41.5938 44.8607 41.8203 44.3945C42.0495 43.9284 42.3672 43.5664 42.7734 43.3086C43.1823 43.0508 43.6576 42.9219 44.1992 42.9219C44.7409 42.9219 45.2148 43.0508 45.6211 43.3086C46.0299 43.5664 46.3477 43.9284 46.5742 44.3945C46.8034 44.8607 46.918 45.4062 46.918 46.0312C46.918 46.651 46.8034 47.1927 46.5742 47.6562C46.3477 48.1198 46.0299 48.4805 45.6211 48.7383C45.2148 48.9961 44.7409 49.125 44.1992 49.125ZM44.1992 48.2969C44.6107 48.2969 44.9492 48.1914 45.2148 47.9805C45.4805 47.7695 45.6771 47.4922 45.8047 47.1484C45.9323 46.8047 45.9961 46.4323 45.9961 46.0312C45.9961 45.6302 45.9323 45.2565 45.8047 44.9102C45.6771 44.5638 45.4805 44.2839 45.2148 44.0703C44.9492 43.8568 44.6107 43.75 44.1992 43.75C43.7878 43.75 43.4492 43.8568 43.1836 44.0703C42.918 44.2839 42.7214 44.5638 42.5938 44.9102C42.4661 45.2565 42.4023 45.6302 42.4023 46.0312C42.4023 46.4323 42.4661 46.8047 42.5938 47.1484C42.7214 47.4922 42.918 47.7695 43.1836 47.9805C43.4492 48.1914 43.7878 48.2969 44.1992 48.2969ZM49.4805 49L47.6523 43H48.6211L49.918 47.5938H49.9805L51.2617 43H52.2461L53.5117 47.5781H53.5742L54.8711 43H55.8398L54.0117 49H53.1055L51.793 44.3906H51.6992L50.3867 49H49.4805ZM59.3701 49.125C58.792 49.125 58.2933 48.9974 57.874 48.7422C57.4574 48.4844 57.1357 48.125 56.9092 47.6641C56.6852 47.2005 56.5732 46.6615 56.5732 46.0469C56.5732 45.4323 56.6852 44.8906 56.9092 44.4219C57.1357 43.9505 57.4508 43.5833 57.8545 43.3203C58.2607 43.0547 58.7347 42.9219 59.2764 42.9219C59.5889 42.9219 59.8975 42.974 60.2021 43.0781C60.5068 43.1823 60.7842 43.3516 61.0342 43.5859C61.2842 43.8177 61.4834 44.125 61.6318 44.5078C61.7803 44.8906 61.8545 45.362 61.8545 45.9219V46.3125H57.2295V45.5156H60.917C60.917 45.1771 60.8493 44.875 60.7139 44.6094C60.5811 44.3437 60.391 44.1341 60.1436 43.9805C59.8988 43.8268 59.6097 43.75 59.2764 43.75C58.9092 43.75 58.5915 43.8411 58.3232 44.0234C58.0576 44.2031 57.8532 44.4375 57.71 44.7266C57.5667 45.0156 57.4951 45.3255 57.4951 45.6562V46.1875C57.4951 46.6406 57.5732 47.0247 57.7295 47.3398C57.8883 47.6523 58.1084 47.8906 58.3896 48.0547C58.6709 48.2161 58.9977 48.2969 59.3701 48.2969C59.6123 48.2969 59.8311 48.263 60.0264 48.1953C60.2243 48.125 60.3949 48.0208 60.5381 47.8828C60.6813 47.7422 60.792 47.5677 60.8701 47.3594L61.7607 47.6094C61.667 47.9115 61.5094 48.1771 61.2881 48.4062C61.0667 48.6328 60.7933 48.8099 60.4678 48.9375C60.1423 49.0625 59.7764 49.125 59.3701 49.125ZM63.2568 49V43H64.1475V43.9062H64.21C64.3193 43.6094 64.5173 43.3685 64.8037 43.1836C65.0902 42.9987 65.4131 42.9062 65.7725 42.9062C65.8402 42.9062 65.9248 42.9076 66.0264 42.9102C66.1279 42.9128 66.2048 42.9167 66.2568 42.9219V43.8594C66.2256 43.8516 66.154 43.8398 66.042 43.8242C65.9326 43.806 65.8167 43.7969 65.6943 43.7969C65.4027 43.7969 65.1423 43.8581 64.9131 43.9805C64.6865 44.1003 64.5068 44.2669 64.374 44.4805C64.2438 44.6914 64.1787 44.9323 64.1787 45.2031V49H63.2568ZM69.6826 49.125C69.1045 49.125 68.6058 48.9974 68.1865 48.7422C67.7699 48.4844 67.4482 48.125 67.2217 47.6641C66.9977 47.2005 66.8857 46.6615 66.8857 46.0469C66.8857 45.4323 66.9977 44.8906 67.2217 44.4219C67.4482 43.9505 67.7633 43.5833 68.167 43.3203C68.5732 43.0547 69.0472 42.9219 69.5889 42.9219C69.9014 42.9219 70.21 42.974 70.5146 43.0781C70.8193 43.1823 71.0967 43.3516 71.3467 43.5859C71.5967 43.8177 71.7959 44.125 71.9443 44.5078C72.0928 44.8906 72.167 45.362 72.167 45.9219V46.3125H67.542V45.5156H71.2295C71.2295 45.1771 71.1618 44.875 71.0264 44.6094C70.8936 44.3437 70.7035 44.1341 70.4561 43.9805C70.2113 43.8268 69.9222 43.75 69.5889 43.75C69.2217 43.75 68.904 43.8411 68.6357 44.0234C68.3701 44.2031 68.1657 44.4375 68.0225 44.7266C67.8792 45.0156 67.8076 45.3255 67.8076 45.6562V46.1875C67.8076 46.6406 67.8857 47.0247 68.042 47.3398C68.2008 47.6523 68.4209 47.8906 68.7021 48.0547C68.9834 48.2161 69.3102 48.2969 69.6826 48.2969C69.9248 48.2969 70.1436 48.263 70.3389 48.1953C70.5368 48.125 70.7074 48.0208 70.8506 47.8828C70.9938 47.7422 71.1045 47.5677 71.1826 47.3594L72.0732 47.6094C71.9795 47.9115 71.8219 48.1771 71.6006 48.4062C71.3792 48.6328 71.1058 48.8099 70.7803 48.9375C70.4548 49.0625 70.0889 49.125 69.6826 49.125ZM75.835 49.125C75.335 49.125 74.8936 48.9987 74.5107 48.7461C74.1279 48.4909 73.8285 48.1315 73.6123 47.668C73.3962 47.2018 73.2881 46.651 73.2881 46.0156C73.2881 45.3854 73.3962 44.8385 73.6123 44.375C73.8285 43.9115 74.1292 43.5534 74.5146 43.3008C74.9001 43.0482 75.3454 42.9219 75.8506 42.9219C76.2412 42.9219 76.5498 42.987 76.7764 43.1172C77.0055 43.2448 77.18 43.3906 77.2998 43.5547C77.4222 43.7161 77.5173 43.849 77.585 43.9531H77.6631V41H78.585V49H77.6943V48.0781H77.585C77.5173 48.1875 77.4209 48.3255 77.2959 48.4922C77.1709 48.6562 76.9925 48.8034 76.7607 48.9336C76.529 49.0612 76.2204 49.125 75.835 49.125ZM75.96 48.2969C76.3298 48.2969 76.6423 48.2005 76.8975 48.0078C77.1527 47.8125 77.3467 47.543 77.4795 47.1992C77.6123 46.8529 77.6787 46.4531 77.6787 46C77.6787 45.5521 77.6136 45.1602 77.4834 44.8242C77.3532 44.4857 77.1605 44.2227 76.9053 44.0352C76.6501 43.8451 76.335 43.75 75.96 43.75C75.5693 43.75 75.2438 43.8503 74.9834 44.0508C74.7256 44.2487 74.5316 44.5182 74.4014 44.8594C74.2738 45.1979 74.21 45.5781 74.21 46C74.21 46.4271 74.2751 46.8151 74.4053 47.1641C74.5381 47.5104 74.7334 47.7865 74.9912 47.9922C75.2516 48.1953 75.5745 48.2969 75.96 48.2969ZM83.6201 49V41H84.542V43.9531H84.6201C84.6878 43.849 84.7816 43.7161 84.9014 43.5547C85.0238 43.3906 85.1982 43.2448 85.4248 43.1172C85.654 42.987 85.9639 42.9219 86.3545 42.9219C86.8597 42.9219 87.305 43.0482 87.6904 43.3008C88.0758 43.5534 88.3766 43.9115 88.5928 44.375C88.8089 44.8385 88.917 45.3854 88.917 46.0156C88.917 46.651 88.8089 47.2018 88.5928 47.668C88.3766 48.1315 88.0771 48.4909 87.6943 48.7461C87.3115 48.9987 86.8701 49.125 86.3701 49.125C85.9847 49.125 85.6761 49.0612 85.4443 48.9336C85.2126 48.8034 85.0342 48.6562 84.9092 48.4922C84.7842 48.3255 84.6878 48.1875 84.6201 48.0781H84.5107V49H83.6201ZM84.5264 46C84.5264 46.4531 84.5928 46.8529 84.7256 47.1992C84.8584 47.543 85.0524 47.8125 85.3076 48.0078C85.5628 48.2005 85.8753 48.2969 86.2451 48.2969C86.6305 48.2969 86.9521 48.1953 87.21 47.9922C87.4704 47.7865 87.6657 47.5104 87.7959 47.1641C87.9287 46.8151 87.9951 46.4271 87.9951 46C87.9951 45.5781 87.93 45.1979 87.7998 44.8594C87.6722 44.5182 87.4782 44.2487 87.2178 44.0508C86.96 43.8503 86.6357 43.75 86.2451 43.75C85.8701 43.75 85.555 43.8451 85.2998 44.0352C85.0446 44.2227 84.8519 44.4857 84.7217 44.8242C84.5915 45.1602 84.5264 45.5521 84.5264 46ZM90.7061 51.25C90.5498 51.25 90.4105 51.237 90.2881 51.2109C90.1657 51.1875 90.0811 51.1641 90.0342 51.1406L90.2686 50.3281C90.4925 50.3854 90.6904 50.4063 90.8623 50.3906C91.0342 50.375 91.1865 50.2982 91.3193 50.1602C91.4548 50.0247 91.5785 49.8047 91.6904 49.5L91.8623 49.0313L89.6436 43H90.6436L92.2998 47.7812H92.3623L94.0186 43H95.0186L92.4717 49.875C92.3571 50.1849 92.2152 50.4414 92.0459 50.6445C91.8766 50.8503 91.68 51.0026 91.4561 51.1016C91.2347 51.2005 90.9847 51.25 90.7061 51.25ZM99.4541 49V41H102.251C102.808 41 103.268 41.0964 103.63 41.2891C103.992 41.4792 104.261 41.7357 104.438 42.0586C104.616 42.3789 104.704 42.7344 104.704 43.125C104.704 43.4687 104.643 43.7526 104.521 43.9766C104.401 44.2005 104.242 44.3776 104.044 44.5078C103.849 44.638 103.636 44.7344 103.407 44.7969V44.875C103.652 44.8906 103.898 44.9766 104.146 45.1328C104.393 45.2891 104.6 45.513 104.767 45.8047C104.933 46.0964 105.017 46.4531 105.017 46.875C105.017 47.276 104.925 47.6367 104.743 47.957C104.561 48.2773 104.273 48.5312 103.88 48.7187C103.487 48.9062 102.975 49 102.345 49H99.4541ZM100.423 48.1406H102.345C102.978 48.1406 103.427 48.0182 103.692 47.7734C103.961 47.526 104.095 47.2266 104.095 46.875C104.095 46.6042 104.026 46.3542 103.888 46.125C103.75 45.8932 103.553 45.7083 103.298 45.5703C103.043 45.4297 102.741 45.3594 102.392 45.3594H100.423V48.1406ZM100.423 44.5156H102.22C102.511 44.5156 102.774 44.4583 103.009 44.3437C103.246 44.2292 103.433 44.0677 103.571 43.8594C103.712 43.651 103.782 43.4062 103.782 43.125C103.782 42.7734 103.66 42.4753 103.415 42.2305C103.17 41.9831 102.782 41.8594 102.251 41.8594H100.423V44.5156ZM108.249 49.1406C107.869 49.1406 107.524 49.069 107.214 48.9258C106.904 48.7799 106.658 48.5703 106.476 48.2969C106.293 48.0208 106.202 47.6875 106.202 47.2969C106.202 46.9531 106.27 46.6745 106.405 46.4609C106.541 46.2448 106.722 46.0755 106.948 45.9531C107.175 45.8307 107.425 45.7396 107.698 45.6797C107.974 45.6172 108.252 45.5677 108.53 45.5313C108.895 45.4844 109.19 45.4492 109.417 45.4258C109.646 45.3997 109.813 45.3568 109.917 45.2969C110.024 45.237 110.077 45.1328 110.077 44.9844V44.9531C110.077 44.5677 109.972 44.2682 109.761 44.0547C109.552 43.8411 109.236 43.7344 108.812 43.7344C108.371 43.7344 108.026 43.8307 107.776 44.0234C107.526 44.2161 107.351 44.4219 107.249 44.6406L106.374 44.3281C106.53 43.9635 106.739 43.6797 106.999 43.4766C107.262 43.2708 107.549 43.1276 107.858 43.0469C108.171 42.9635 108.478 42.9219 108.78 42.9219C108.973 42.9219 109.194 42.9453 109.444 42.9922C109.697 43.0365 109.94 43.1289 110.175 43.2695C110.412 43.4102 110.608 43.6224 110.765 43.9062C110.921 44.1901 110.999 44.5703 110.999 45.0469V49H110.077V48.1875H110.03C109.968 48.3177 109.864 48.457 109.718 48.6055C109.572 48.7539 109.378 48.8802 109.136 48.9844C108.894 49.0885 108.598 49.1406 108.249 49.1406ZM108.39 48.3125C108.754 48.3125 109.062 48.2409 109.312 48.0977C109.564 47.9544 109.754 47.7695 109.882 47.543C110.012 47.3164 110.077 47.0781 110.077 46.8281V45.9844C110.038 46.0312 109.952 46.0742 109.819 46.1133C109.689 46.1497 109.538 46.1823 109.366 46.2109C109.197 46.237 109.032 46.2604 108.87 46.2812C108.711 46.2995 108.582 46.3151 108.483 46.3281C108.244 46.3594 108.02 46.4102 107.812 46.4805C107.606 46.5482 107.439 46.651 107.312 46.7891C107.187 46.9245 107.124 47.1094 107.124 47.3437C107.124 47.6641 107.243 47.9062 107.479 48.0703C107.719 48.2318 108.022 48.3125 108.39 48.3125ZM113.604 45.3906V49H112.682V43H113.572V43.9375H113.65C113.791 43.6328 114.005 43.388 114.291 43.2031C114.577 43.0156 114.947 42.9219 115.4 42.9219C115.807 42.9219 116.162 43.0052 116.467 43.1719C116.771 43.3359 117.008 43.5859 117.178 43.9219C117.347 44.2552 117.432 44.6771 117.432 45.1875V49H116.51V45.25C116.51 44.7786 116.387 44.4115 116.143 44.1484C115.898 43.8828 115.562 43.75 115.135 43.75C114.84 43.75 114.577 43.8138 114.346 43.9414C114.117 44.069 113.936 44.2552 113.803 44.5C113.67 44.7448 113.604 45.0417 113.604 45.3906ZM119.976 46.8125L119.96 45.6719H120.147L122.772 43H123.913L121.116 45.8281H121.038L119.976 46.8125ZM119.116 49V41H120.038V49H119.116ZM122.929 49L120.585 46.0312L121.241 45.3906L124.101 49H122.929ZM125.1 49V43H126.021V49H125.1ZM125.568 42C125.389 42 125.234 41.9388 125.104 41.8164C124.976 41.694 124.912 41.5469 124.912 41.375C124.912 41.2031 124.976 41.056 125.104 40.9336C125.234 40.8112 125.389 40.75 125.568 40.75C125.748 40.75 125.902 40.8112 126.029 40.9336C126.16 41.056 126.225 41.2031 126.225 41.375C126.225 41.5469 126.16 41.694 126.029 41.8164C125.902 41.9388 125.748 42 125.568 42ZM130.382 43V43.7812H127.147V43H130.382ZM128.116 49V42.1719C128.116 41.8281 128.197 41.5417 128.358 41.3125C128.52 41.0833 128.729 40.9115 128.987 40.7969C129.245 40.6823 129.517 40.625 129.804 40.625C130.03 40.625 130.215 40.6432 130.358 40.6797C130.502 40.7161 130.608 40.75 130.679 40.7812L130.413 41.5781C130.366 41.5625 130.301 41.543 130.218 41.5195C130.137 41.4961 130.03 41.4844 129.897 41.4844C129.593 41.4844 129.373 41.5612 129.237 41.7148C129.104 41.8685 129.038 42.0937 129.038 42.3906V49H128.116ZM132.268 51.25C132.111 51.25 131.972 51.237 131.85 51.2109C131.727 51.1875 131.643 51.1641 131.596 51.1406L131.83 50.3281C132.054 50.3854 132.252 50.4063 132.424 50.3906C132.596 50.375 132.748 50.2982 132.881 50.1602C133.016 50.0247 133.14 49.8047 133.252 49.5L133.424 49.0313L131.205 43H132.205L133.861 47.7812H133.924L135.58 43H136.58L134.033 49.875C133.919 50.1849 133.777 50.4414 133.607 50.6445C133.438 50.8503 133.242 51.0026 133.018 51.1016C132.796 51.2005 132.546 51.25 132.268 51.25Z" fill="black"/>
<defs>
<linearGradient id="paint0_linear_139_3473" x1="16.2625" y1="20.6786" x2="3.94109" y2="37.1357" gradientUnits="userSpaceOnUse">
<stop/>
<stop offset="1" stop-opacity="0"/>
</linearGradient>
<linearGradient id="paint1_linear_139_3473" x1="16.2625" y1="20.6786" x2="3.94109" y2="37.1357" gradientUnits="userSpaceOnUse">
<stop/>
<stop offset="1" stop-opacity="0"/>
</linearGradient>
</defs>
</svg>
